<svg width="278" height="81" viewBox="0 0 278 81" fill="none" xmlns="http://www.w3.org/2000/svg">
<path fill-rule="evenodd" clip-rule="evenodd" d="M42.0334 53.7241C42.0334 53.7241 42.0334 53.7241 42.0334 53.7241L42.0483 53.7376L42.0952 53.7796C42.1367 53.8167 42.1986 53.872 42.2791 53.9434C42.4402 54.0863 42.6757 54.2939 42.9717 54.5514C43.5641 55.0665 44.3978 55.7801 45.3623 56.5732C47.3012 58.1675 49.7314 60.0522 51.7835 61.3007C54.7131 63.0832 58.0428 63.5584 61.2892 61.7751C63.5935 60.5093 64.7513 57.8773 64.2845 55.2222C64.0057 53.6372 62.838 52.0978 61.3854 51.1198C59.8549 50.0893 57.8391 50.1274 56.2032 51.1609C54.5122 52.2292 53.7027 54.1434 54.3516 55.6752C54.6842 56.4604 55.4215 57.0442 56.313 57.2823C57.2044 57.5205 58.1399 57.3834 58.8282 56.8688C59.2717 56.5372 59.8996 56.6268 60.2306 57.0689C60.5617 57.511 60.4705 58.1382 60.027 58.4698C58.7688 59.4105 57.1765 59.5858 55.7908 59.2157C54.4053 58.8456 53.1163 57.9005 52.5054 56.4584C51.3542 53.7407 52.9049 50.879 55.1345 49.4704C57.3725 48.0564 60.2526 47.9408 62.5085 49.4597C64.2873 50.6574 65.8628 52.6218 66.2585 54.8717C66.8598 58.2915 65.3777 61.8111 62.2521 63.528C58.239 65.7325 54.1341 65.0768 50.7378 63.0104C48.5593 61.6849 46.0395 59.7254 44.0861 58.1192C43.1044 57.312 42.2564 56.5861 41.6535 56.0619C41.352 55.7997 41.1115 55.5877 40.946 55.4408C40.8632 55.3674 40.7992 55.3102 40.7556 55.2712L40.7058 55.2266L40.6884 55.2109C40.6883 55.2109 40.688 55.2105 41.3607 54.4673L40.688 55.2105C40.2778 54.8405 40.2464 54.2078 40.6179 53.7973C40.9895 53.3869 41.6232 53.3541 42.0334 53.7241Z" fill="#AEB5BC"/>
<path d="M27.1169 41.9306C28.8381 38.6207 32.2585 36.5441 35.9891 36.5441H38.1585C44.8023 36.5441 49.5989 42.9032 47.7737 49.2913L47.4449 50.4422C45.9277 55.7525 40.3928 58.8274 35.0824 57.3102L32.959 56.7035C26.8763 54.9656 23.9154 48.0873 26.834 42.4747L27.1169 41.9306Z" fill="#C4C4C4"/>
<rect width="16.1354" height="6.71808" rx="3.35904" transform="matrix(-0.814941 0.579544 0.579544 0.814941 49.7693 44.934)" fill="#9BA1A6"/>
<rect width="12.3638" height="5.14776" rx="2.57388" transform="matrix(-0.814941 0.579544 0.579544 0.814941 47.7272 38.8878)" fill="#9BA1A6"/>
<path fill-rule="evenodd" clip-rule="evenodd" d="M65.3619 10.9458L69.4852 12.8177L68.5492 14.8793L66.4876 13.9434C68.5492 14.8793 68.5491 14.8796 68.5489 14.88L68.547 14.8843L68.542 14.8952L68.5241 14.9342C68.5087 14.9679 68.4862 15.0166 68.457 15.0797C68.3985 15.2058 68.3127 15.3893 68.2012 15.6241C67.9782 16.0935 67.6523 16.7683 67.236 17.5993C66.4041 19.2599 65.2079 21.5514 63.7486 24.0781C60.8655 29.0701 56.825 35.2128 52.4264 39.1256C50.4091 40.9201 48.2471 41.8998 46.5033 42.6899C46.2066 42.8244 45.922 42.9533 45.6523 43.0799C43.7609 43.9673 42.3559 44.8098 41.2254 46.578C39.6667 49.0161 39.3381 51.2333 39.4886 53.7388C39.5668 55.0402 39.7732 56.3974 40.0205 57.9445C40.0387 58.0587 40.0572 58.1738 40.0758 58.2899C40.3046 59.7174 40.5563 61.2869 40.7219 62.9664L40.9442 65.2196L36.4378 65.6641L36.2155 63.4109C36.0639 61.874 35.8331 60.4332 35.6013 58.9862C35.5838 58.8773 35.5664 58.7683 35.5489 58.6593C35.3046 57.1306 35.0619 55.5651 34.9685 54.0103C34.7759 50.8034 35.214 47.5741 37.4102 44.1389C39.2355 41.2838 41.5823 39.9876 43.7288 38.9804C44.0726 38.8191 44.406 38.6667 44.7306 38.5183C46.4673 37.7243 47.9511 37.046 49.4167 35.7423C53.2405 32.3407 56.9831 26.7381 59.8273 21.8134C61.2317 19.3818 62.3853 17.1721 63.1873 15.5711C63.588 14.7713 63.9 14.1252 64.1108 13.6814C64.2161 13.4595 64.2961 13.2884 64.3492 13.174C64.3757 13.1168 64.3955 13.0738 64.4084 13.0458L64.4224 13.0151L64.4259 13.0074L65.3619 10.9458Z" fill="#877171"/>
<rect x="25.0775" y="43.5904" width="16.1354" height="6.71808" rx="3.35904" transform="rotate(35.4184 25.0775 43.5904)" fill="#9BA1A6"/>
<rect x="30.4519" y="38.8878" width="12.3638" height="5.14776" rx="2.57388" transform="rotate(35.4184 30.4519 38.8878)" fill="#9BA1A6"/>
<path d="M40.2148 39.885C40.308 39.8918 40.4028 39.8955 40.4994 39.8955C41.5473 39.8955 42.3529 39.5869 43.1253 39.291C43.8369 39.0184 44.5205 38.7566 45.3396 38.7566C46.8532 38.7566 48.7613 38.0831 50.1939 37.5775C50.9171 37.3223 51.5191 37.1098 51.8881 37.0483C52.0825 36.8835 52.2802 36.7168 52.4801 36.5481L52.4827 36.5459C56.0802 33.5113 60.4297 29.8424 60.4297 25.2411C60.4297 15.7325 51.634 10 40.7841 10C40.5937 10 40.4039 10.0018 40.2148 10.0053C40.0257 10.0018 39.836 10 39.6456 10C28.7956 10 20 15.7325 20 25.2411C20 29.8424 24.3494 33.5113 27.947 36.5459C28.1478 36.7153 28.3463 36.8828 28.5416 37.0483C28.9105 37.1098 29.5126 37.3223 30.2358 37.5775C31.6684 38.0831 33.5765 38.7566 35.0901 38.7566C35.9092 38.7566 36.5927 39.0184 37.3043 39.291C38.0768 39.5869 38.8824 39.8955 39.9303 39.8955C40.0269 39.8955 40.1216 39.8918 40.2148 39.885Z" fill="#9BA1A6"/>
<circle cx="31.3892" cy="27.3688" r="10.2499" fill="#C4C4C4"/>
<circle cx="31.3892" cy="27.3679" r="8.54156" fill="#FFD8D3"/>
<circle cx="31.3892" cy="27.3678" r="6.83325" fill="#6FBF4A"/>
<circle cx="31.3892" cy="27.3679" r="5.12494" fill="#222529"/>
<circle cx="34.2366" cy="23.3818" r="1.13887" fill="white"/>
<circle cx="50.1797" cy="27.3678" r="10.2499" fill="#C4C4C4"/>
<circle cx="50.1798" cy="27.3678" r="8.54156" fill="#FFD8D3"/>
<path d="M38.9564 33.3399C38.8673 32.2707 39.7111 31.3538 40.784 31.3538V31.3538C41.8568 31.3538 42.7006 32.2707 42.6115 33.3399L42.4923 34.7704H39.0756L38.9564 33.3399Z" fill="#C4C4C4"/>
<circle cx="50.1799" cy="27.3677" r="6.83325" fill="#6FBF4A"/>
<circle cx="50.1803" cy="27.3678" r="5.12494" fill="#222529"/>
<circle cx="53.0278" cy="23.3818" r="1.13887" fill="white"/>
<path d="M41.8032 36.1498C41.3835 36.9892 40.1856 36.9892 39.7659 36.1498L39.0762 34.7704L42.4929 34.7704L41.8032 36.1498Z" fill="#FFD8D3"/>
<path d="M25.2169 11.993C26.5908 13.09 27.4035 14.2708 27.4035 14.2708C27.4035 14.2708 26.4246 15.0757 25.6952 15.6944C24.9756 16.3046 23.5086 18.2569 23.5086 18.2569C23.5086 18.2569 22.9392 17.6874 21.2309 15.4097C19.5225 13.1319 20.092 10.2847 20.092 10.2847C20.092 10.2847 23.5683 10.6767 25.2169 11.993Z" fill="#FFD8D3"/>
<path d="M55.7839 11.993C54.4101 13.09 53.5974 14.2708 53.5974 14.2708C53.5974 14.2708 54.5762 15.0757 55.3057 15.6944C56.0252 16.3046 57.4922 18.2569 57.4922 18.2569C57.4922 18.2569 58.0617 17.6874 59.77 15.4097C61.4783 13.1319 60.9089 10.2847 60.9089 10.2847C60.9089 10.2847 57.4326 10.6767 55.7839 11.993Z" fill="#FFD8D3"/>
<rect x="41.7545" y="47.0398" width="0.696211" height="4.17726" rx="0.348105" transform="rotate(110.076 41.7545 47.0398)" fill="#FFD8D3"/>
<rect x="41.4356" y="47.9117" width="0.696211" height="4.17726" rx="0.348105" transform="rotate(110.076 41.4356 47.9117)" fill="#FFD8D3"/>
<rect x="41.1168" y="48.7836" width="0.696211" height="4.17726" rx="0.348105" transform="rotate(110.076 41.1168 48.7836)" fill="#FFD8D3"/>
<rect x="40.7979" y="49.6555" width="0.696211" height="4.17726" rx="0.348105" transform="rotate(110.076 40.7979 49.6555)" fill="#FFD8D3"/>
<rect x="39.5961" y="54.3764" width="0.881023" height="5.28614" rx="0.440511" transform="rotate(110.076 39.5961 54.3764)" fill="#FFD8D3"/>
<rect x="39.1917" y="55.4799" width="0.881023" height="5.28614" rx="0.440511" transform="rotate(110.076 39.1917 55.4799)" fill="#FFD8D3"/>
<rect x="38.7889" y="56.5832" width="0.881023" height="5.28614" rx="0.440511" transform="rotate(110.076 38.7889 56.5832)" fill="#FFD8D3"/>
<rect x="38.3861" y="57.6865" width="0.881023" height="5.28614" rx="0.440511" transform="rotate(110.076 38.3861 57.6865)" fill="#FFD8D3"/>
<path d="M95.4036 42.816H84.7476L82.7676 47.712H75.4956L86.6196 22.512H93.6396L104.8 47.712H97.3836L95.4036 42.816ZM93.3156 37.56L90.0756 29.496L86.8356 37.56H93.3156Z" fill="#6FBF4A"/>
<path d="M118.34 22.512C120.62 22.512 122.6 22.896 124.28 23.664C125.96 24.408 127.256 25.488 128.168 26.904C129.08 28.296 129.536 29.94 129.536 31.836C129.536 33.732 129.08 35.376 128.168 36.768C127.256 38.16 125.96 39.24 124.28 40.008C122.6 40.752 120.62 41.124 118.34 41.124H113.948V47.712H106.82V22.512H118.34ZM117.908 35.508C119.372 35.508 120.476 35.196 121.22 34.572C121.964 33.924 122.336 33.012 122.336 31.836C122.336 30.66 121.964 29.748 121.22 29.1C120.476 28.452 119.372 28.128 117.908 28.128H113.948V35.508H117.908Z" fill="#6FBF4A"/>
<path d="M133.012 22.512H140.14V47.712H133.012V22.512Z" fill="#6FBF4A"/>
<path d="M160.048 47.892C157.576 47.892 155.344 47.34 153.352 46.236C151.384 45.132 149.824 43.608 148.672 41.664C147.544 39.72 146.98 37.536 146.98 35.112C146.98 32.688 147.544 30.504 148.672 28.56C149.824 26.616 151.384 25.092 153.352 23.988C155.344 22.884 157.576 22.332 160.048 22.332C161.872 22.332 163.552 22.632 165.088 23.232C166.624 23.808 167.932 24.672 169.012 25.824L167.86 27.012C165.844 25.02 163.264 24.024 160.12 24.024C158.008 24.024 156.088 24.504 154.36 25.464C152.632 26.424 151.276 27.756 150.292 29.46C149.308 31.14 148.816 33.024 148.816 35.112C148.816 37.2 149.308 39.096 150.292 40.8C151.276 42.48 152.632 43.8 154.36 44.76C156.088 45.72 158.008 46.2 160.12 46.2C163.24 46.2 165.82 45.192 167.86 43.176L169.012 44.364C167.932 45.516 166.612 46.392 165.052 46.992C163.516 47.592 161.848 47.892 160.048 47.892Z" fill="white"/>
<path d="M174.586 21H176.386V47.712H174.586V21Z" fill="white"/>
<path d="M190.308 28.776C192.636 28.776 194.424 29.376 195.672 30.576C196.92 31.752 197.544 33.492 197.544 35.796V47.712H195.816V44.364C195.216 45.468 194.34 46.332 193.188 46.956C192.036 47.556 190.656 47.856 189.048 47.856C186.96 47.856 185.304 47.364 184.08 46.38C182.88 45.396 182.28 44.1 182.28 42.492C182.28 40.932 182.832 39.672 183.936 38.712C185.064 37.728 186.852 37.236 189.3 37.236H195.744V35.724C195.744 33.972 195.264 32.64 194.304 31.728C193.368 30.816 191.988 30.36 190.164 30.36C188.916 30.36 187.716 30.576 186.564 31.008C185.436 31.44 184.476 32.016 183.684 32.736L182.784 31.44C183.72 30.6 184.848 29.952 186.168 29.496C187.488 29.016 188.868 28.776 190.308 28.776ZM189.3 46.38C190.86 46.38 192.18 46.02 193.26 45.3C194.364 44.58 195.192 43.536 195.744 42.168V38.64H189.336C187.488 38.64 186.144 38.976 185.304 39.648C184.488 40.32 184.08 41.244 184.08 42.42C184.08 43.644 184.536 44.616 185.448 45.336C186.36 46.032 187.644 46.38 189.3 46.38Z" fill="white"/>
<path d="M206.689 33.024C207.265 31.656 208.165 30.612 209.389 29.892C210.613 29.148 212.101 28.776 213.853 28.776V30.54L213.421 30.504C211.333 30.504 209.701 31.164 208.525 32.484C207.349 33.78 206.761 35.592 206.761 37.92V47.712H204.961V28.92H206.689V33.024Z" fill="white"/>
<path d="M218.812 28.92H220.612V47.712H218.812V28.92ZM219.712 24.348C219.304 24.348 218.956 24.216 218.668 23.952C218.38 23.664 218.236 23.316 218.236 22.908C218.236 22.5 218.38 22.152 218.668 21.864C218.956 21.576 219.304 21.432 219.712 21.432C220.12 21.432 220.468 21.576 220.756 21.864C221.044 22.128 221.188 22.464 221.188 22.872C221.188 23.28 221.044 23.628 220.756 23.916C220.468 24.204 220.12 24.348 219.712 24.348Z" fill="white"/>
<path d="M237.523 46.524C237.067 46.956 236.491 47.292 235.795 47.532C235.123 47.748 234.415 47.856 233.671 47.856C232.039 47.856 230.779 47.412 229.891 46.524C229.003 45.612 228.559 44.352 228.559 42.744V30.468H225.103V28.92H228.559V24.816H230.359V28.92H236.335V30.468H230.359V42.564C230.359 43.788 230.647 44.724 231.223 45.372C231.823 45.996 232.699 46.308 233.851 46.308C235.027 46.308 235.999 45.96 236.767 45.264L237.523 46.524Z" fill="white"/>
<path d="M257.275 28.92L247.627 50.268C246.907 51.924 246.067 53.1 245.107 53.796C244.171 54.492 243.055 54.84 241.759 54.84C240.895 54.84 240.079 54.696 239.311 54.408C238.567 54.12 237.931 53.7 237.403 53.148L238.303 51.78C239.263 52.764 240.427 53.256 241.795 53.256C242.707 53.256 243.487 53.004 244.135 52.5C244.783 51.996 245.383 51.132 245.935 49.908L246.943 47.64L238.483 28.92H240.391L247.915 45.732L255.439 28.92H257.275Z" fill="white"/>
</svg>
