<svg width="90" height="81" viewBox="0 0 90 81" fill="none" xmlns="http://www.w3.org/2000/svg">
<path fill-rule="evenodd" clip-rule="evenodd" d="M42.0334 53.7241C42.0334 53.7241 42.0334 53.7241 42.0334 53.7241L42.0483 53.7376L42.0952 53.7796C42.1367 53.8167 42.1986 53.872 42.2791 53.9434C42.4402 54.0863 42.6757 54.2939 42.9717 54.5514C43.5641 55.0665 44.3978 55.7801 45.3623 56.5732C47.3012 58.1675 49.7314 60.0522 51.7835 61.3007C54.7131 63.0832 58.0428 63.5584 61.2892 61.7751C63.5935 60.5093 64.7513 57.8773 64.2845 55.2222C64.0057 53.6372 62.838 52.0978 61.3854 51.1198C59.8549 50.0893 57.8391 50.1274 56.2032 51.1609C54.5122 52.2292 53.7027 54.1434 54.3516 55.6752C54.6842 56.4604 55.4215 57.0442 56.313 57.2823C57.2044 57.5205 58.1399 57.3834 58.8282 56.8688C59.2717 56.5372 59.8996 56.6268 60.2306 57.0689C60.5617 57.511 60.4705 58.1382 60.027 58.4698C58.7688 59.4105 57.1765 59.5858 55.7908 59.2157C54.4053 58.8456 53.1163 57.9005 52.5054 56.4584C51.3542 53.7407 52.9049 50.879 55.1345 49.4704C57.3725 48.0564 60.2526 47.9408 62.5085 49.4597C64.2873 50.6574 65.8628 52.6218 66.2585 54.8717C66.8598 58.2915 65.3777 61.8111 62.2521 63.528C58.239 65.7325 54.1341 65.0768 50.7378 63.0104C48.5593 61.6849 46.0395 59.7254 44.0861 58.1192C43.1044 57.312 42.2564 56.5861 41.6535 56.0619C41.352 55.7997 41.1115 55.5877 40.946 55.4408C40.8632 55.3674 40.7992 55.3102 40.7556 55.2712L40.7058 55.2266L40.6884 55.2109C40.6883 55.2109 40.688 55.2105 41.3607 54.4673L40.688 55.2105C40.2778 54.8405 40.2464 54.2078 40.6179 53.7973C40.9895 53.3869 41.6232 53.3541 42.0334 53.7241Z" fill="#AEB5BC"/>
<path d="M27.1169 41.9306C28.8381 38.6207 32.2585 36.5441 35.9891 36.5441H38.1585C44.8023 36.5441 49.5989 42.9032 47.7737 49.2913L47.4449 50.4422C45.9277 55.7525 40.3928 58.8274 35.0824 57.3102L32.959 56.7035C26.8763 54.9656 23.9154 48.0873 26.834 42.4747L27.1169 41.9306Z" fill="#C4C4C4"/>
<rect width="16.1354" height="6.71808" rx="3.35904" transform="matrix(-0.814941 0.579544 0.579544 0.814941 49.7693 44.934)" fill="#9BA1A6"/>
<rect width="12.3638" height="5.14776" rx="2.57388" transform="matrix(-0.814941 0.579544 0.579544 0.814941 47.7272 38.8878)" fill="#9BA1A6"/>
<path fill-rule="evenodd" clip-rule="evenodd" d="M65.3619 10.9458L69.4852 12.8177L68.5492 14.8793L66.4876 13.9434C68.5492 14.8793 68.5491 14.8796 68.5489 14.88L68.547 14.8843L68.542 14.8952L68.5241 14.9342C68.5087 14.9679 68.4862 15.0166 68.457 15.0797C68.3985 15.2058 68.3127 15.3893 68.2012 15.6241C67.9782 16.0935 67.6523 16.7683 67.236 17.5993C66.4041 19.2599 65.2079 21.5514 63.7486 24.0781C60.8655 29.0701 56.825 35.2128 52.4264 39.1256C50.4091 40.9201 48.2471 41.8998 46.5033 42.6899C46.2066 42.8244 45.922 42.9533 45.6523 43.0799C43.7609 43.9673 42.3559 44.8098 41.2254 46.578C39.6667 49.0161 39.3381 51.2333 39.4886 53.7388C39.5668 55.0402 39.7732 56.3974 40.0205 57.9445C40.0387 58.0587 40.0572 58.1738 40.0758 58.2899C40.3046 59.7174 40.5563 61.2869 40.7219 62.9664L40.9442 65.2196L36.4378 65.6641L36.2155 63.4109C36.0639 61.874 35.8331 60.4332 35.6013 58.9862C35.5838 58.8773 35.5664 58.7683 35.5489 58.6593C35.3046 57.1306 35.0619 55.5651 34.9685 54.0103C34.7759 50.8034 35.214 47.5741 37.4102 44.1389C39.2355 41.2838 41.5823 39.9876 43.7288 38.9804C44.0726 38.8191 44.406 38.6667 44.7306 38.5183C46.4673 37.7243 47.9511 37.046 49.4167 35.7423C53.2405 32.3407 56.9831 26.7381 59.8273 21.8134C61.2317 19.3818 62.3853 17.1721 63.1873 15.5711C63.588 14.7713 63.9 14.1252 64.1108 13.6814C64.2161 13.4595 64.2961 13.2884 64.3492 13.174C64.3757 13.1168 64.3955 13.0738 64.4084 13.0458L64.4224 13.0151L64.4259 13.0074L65.3619 10.9458Z" fill="#877171"/>
<rect x="25.0775" y="43.5904" width="16.1354" height="6.71808" rx="3.35904" transform="rotate(35.4184 25.0775 43.5904)" fill="#9BA1A6"/>
<rect x="30.4519" y="38.8878" width="12.3638" height="5.14776" rx="2.57388" transform="rotate(35.4184 30.4519 38.8878)" fill="#9BA1A6"/>
<path d="M40.2148 39.885C40.308 39.8918 40.4028 39.8955 40.4994 39.8955C41.5473 39.8955 42.3529 39.5869 43.1253 39.291C43.8369 39.0184 44.5205 38.7566 45.3396 38.7566C46.8532 38.7566 48.7613 38.0831 50.1939 37.5775C50.9171 37.3223 51.5191 37.1098 51.8881 37.0483C52.0825 36.8835 52.2802 36.7168 52.4801 36.5481L52.4827 36.5459C56.0802 33.5113 60.4297 29.8424 60.4297 25.2411C60.4297 15.7325 51.634 10 40.7841 10C40.5937 10 40.4039 10.0018 40.2148 10.0053C40.0257 10.0018 39.836 10 39.6456 10C28.7956 10 20 15.7325 20 25.2411C20 29.8424 24.3494 33.5113 27.947 36.5459C28.1478 36.7153 28.3463 36.8828 28.5416 37.0483C28.9105 37.1098 29.5126 37.3223 30.2358 37.5775C31.6684 38.0831 33.5765 38.7566 35.0901 38.7566C35.9092 38.7566 36.5927 39.0184 37.3043 39.291C38.0768 39.5869 38.8824 39.8955 39.9303 39.8955C40.0269 39.8955 40.1216 39.8918 40.2148 39.885Z" fill="#9BA1A6"/>
<circle cx="31.3892" cy="27.3688" r="10.2499" fill="#C4C4C4"/>
<circle cx="31.3892" cy="27.3679" r="8.54156" fill="#FFD8D3"/>
<circle cx="31.3892" cy="27.3678" r="6.83325" fill="#6FBF4A"/>
<circle cx="31.3892" cy="27.3679" r="5.12494" fill="#222529"/>
<circle cx="34.2366" cy="23.3818" r="1.13887" fill="white"/>
<circle cx="50.1797" cy="27.3678" r="10.2499" fill="#C4C4C4"/>
<circle cx="50.1798" cy="27.3678" r="8.54156" fill="#FFD8D3"/>
<path d="M38.9564 33.3399C38.8673 32.2707 39.7111 31.3538 40.784 31.3538V31.3538C41.8568 31.3538 42.7006 32.2707 42.6115 33.3399L42.4923 34.7704H39.0756L38.9564 33.3399Z" fill="#C4C4C4"/>
<circle cx="50.1799" cy="27.3677" r="6.83325" fill="#6FBF4A"/>
<circle cx="50.1803" cy="27.3678" r="5.12494" fill="#222529"/>
<circle cx="53.0278" cy="23.3818" r="1.13887" fill="white"/>
<path d="M41.8032 36.1498C41.3835 36.9892 40.1856 36.9892 39.7659 36.1498L39.0762 34.7704L42.4929 34.7704L41.8032 36.1498Z" fill="#FFD8D3"/>
<path d="M25.2169 11.993C26.5908 13.09 27.4035 14.2708 27.4035 14.2708C27.4035 14.2708 26.4246 15.0757 25.6952 15.6944C24.9756 16.3046 23.5086 18.2569 23.5086 18.2569C23.5086 18.2569 22.9392 17.6874 21.2309 15.4097C19.5225 13.1319 20.092 10.2847 20.092 10.2847C20.092 10.2847 23.5683 10.6767 25.2169 11.993Z" fill="#FFD8D3"/>
<path d="M55.7839 11.993C54.4101 13.09 53.5974 14.2708 53.5974 14.2708C53.5974 14.2708 54.5762 15.0757 55.3057 15.6944C56.0252 16.3046 57.4922 18.2569 57.4922 18.2569C57.4922 18.2569 58.0617 17.6874 59.77 15.4097C61.4783 13.1319 60.9089 10.2847 60.9089 10.2847C60.9089 10.2847 57.4326 10.6767 55.7839 11.993Z" fill="#FFD8D3"/>
<rect x="41.7545" y="47.0398" width="0.696211" height="4.17726" rx="0.348105" transform="rotate(110.076 41.7545 47.0398)" fill="#FFD8D3"/>
<rect x="41.4356" y="47.9117" width="0.696211" height="4.17726" rx="0.348105" transform="rotate(110.076 41.4356 47.9117)" fill="#FFD8D3"/>
<rect x="41.1168" y="48.7836" width="0.696211" height="4.17726" rx="0.348105" transform="rotate(110.076 41.1168 48.7836)" fill="#FFD8D3"/>
<rect x="40.7979" y="49.6555" width="0.696211" height="4.17726" rx="0.348105" transform="rotate(110.076 40.7979 49.6555)" fill="#FFD8D3"/>
<rect x="39.5961" y="54.3764" width="0.881023" height="5.28614" rx="0.440511" transform="rotate(110.076 39.5961 54.3764)" fill="#FFD8D3"/>
<rect x="39.1917" y="55.4799" width="0.881023" height="5.28614" rx="0.440511" transform="rotate(110.076 39.1917 55.4799)" fill="#FFD8D3"/>
<rect x="38.7889" y="56.5832" width="0.881023" height="5.28614" rx="0.440511" transform="rotate(110.076 38.7889 56.5832)" fill="#FFD8D3"/>
<rect x="38.3861" y="57.6865" width="0.881023" height="5.28614" rx="0.440511" transform="rotate(110.076 38.3861 57.6865)" fill="#FFD8D3"/>
</svg>
